<svg width="20" height="20" viewBox="0 0 20 20" fill="none" xmlns="http://www.w3.org/2000/svg">
<path d="M10.3709 2.00383C12.9407 2.00383 13.2451 2.01346 14.2603 2.05975C14.8706 2.06722 15.4752 2.1793 16.0477 2.39112C16.4629 2.55123 16.8399 2.7965 17.1546 3.11115C17.4692 3.42579 17.7145 3.80283 17.8746 4.218C18.0864 4.7905 18.1985 5.39508 18.206 6.00547C18.2518 7.02066 18.2619 7.32498 18.2619 9.89481C18.2619 12.4646 18.2523 12.769 18.206 13.7842C18.1985 14.3945 18.0864 14.9991 17.8746 15.5716C17.7145 15.9868 17.4692 16.3638 17.1546 16.6785C16.8399 16.9931 16.4629 17.2384 16.0477 17.3985C15.4752 17.6103 14.8706 17.7224 14.2603 17.7299C13.2455 17.7757 12.9412 17.7858 10.3709 17.7858C7.80063 17.7858 7.4963 17.7762 6.48157 17.7299C5.87119 17.7224 5.26661 17.6103 4.69411 17.3985C4.27894 17.2384 3.90189 16.9931 3.58725 16.6785C3.27261 16.3638 3.02733 15.9868 2.86722 15.5716C2.6554 14.9991 2.54332 14.3945 2.53585 13.7842C2.49002 12.769 2.47994 12.4646 2.47994 9.89481C2.47994 7.32498 2.48956 7.02066 2.53585 6.00547C2.54332 5.39508 2.6554 4.7905 2.86722 4.218C3.02733 3.80283 3.27261 3.42579 3.58725 3.11115C3.90189 2.7965 4.27894 2.55123 4.69411 2.39112C5.26661 2.1793 5.87119 2.06722 6.48157 2.05975C7.49676 2.01392 7.80109 2.00383 10.3709 2.00383V2.00383ZM10.3709 0.269531C7.75847 0.269531 7.42939 0.280531 6.40274 0.32728C5.6039 0.343169 4.81354 0.494422 4.06528 0.774605C3.4234 1.01645 2.84201 1.39544 2.36169 1.88513C1.87156 2.36562 1.49224 2.94734 1.25025 3.58964C0.970068 4.3379 0.818815 5.12826 0.802926 5.92709C0.757094 6.95282 0.746094 7.2819 0.746094 9.89435C0.746094 12.5068 0.757094 12.8359 0.803843 13.8625C0.819732 14.6614 0.970985 15.4517 1.25117 16.2C1.49289 16.8422 1.87189 17.4239 2.36169 17.9045C2.84228 18.3943 3.42399 18.7733 4.0662 19.015C4.81446 19.2952 5.60482 19.4465 6.40366 19.4623C7.43031 19.5082 7.75801 19.5201 10.3718 19.5201C12.9857 19.5201 13.3134 19.5091 14.34 19.4623C15.1389 19.4465 15.9292 19.2952 16.6775 19.015C17.3166 18.7673 17.8971 18.3888 18.3816 17.904C18.8662 17.4191 19.2442 16.8384 19.4916 16.1991C19.7718 15.4508 19.923 14.6605 19.9389 13.8616C19.9847 12.8359 19.9957 12.5068 19.9957 9.89435C19.9957 7.2819 19.9847 6.95283 19.938 5.92618C19.9221 5.12734 19.7709 4.33698 19.4907 3.58872C19.2489 2.94651 18.87 2.3648 18.3801 1.88421C17.8996 1.39441 17.3179 1.01541 16.6756 0.773689C15.9274 0.493506 15.137 0.342253 14.3382 0.326364C13.3124 0.280531 12.9834 0.269531 10.3709 0.269531Z" fill="white"/>
<path d="M10.3732 4.95312C9.39569 4.95312 8.4401 5.243 7.62729 5.7861C6.81449 6.3292 6.18099 7.10112 5.8069 8.00426C5.43281 8.9074 5.33493 9.90118 5.52564 10.86C5.71635 11.8187 6.18708 12.6994 6.87831 13.3906C7.56955 14.0819 8.45023 14.5526 9.40899 14.7433C10.3678 14.934 11.3615 14.8361 12.2647 14.462C13.1678 14.088 13.9397 13.4545 14.4828 12.6417C15.0259 11.8288 15.3158 10.8733 15.3158 9.8957C15.3158 8.58485 14.7951 7.32769 13.8682 6.40077C12.9413 5.47386 11.6841 4.95312 10.3732 4.95312ZM10.3732 13.104C9.73871 13.104 9.11842 12.9158 8.59082 12.5633C8.06322 12.2108 7.65201 11.7097 7.40918 11.1235C7.16636 10.5372 7.10282 9.89214 7.22661 9.2698C7.35041 8.64745 7.65597 8.07579 8.10465 7.62711C8.55334 7.17842 9.125 6.87286 9.74734 6.74907C10.3697 6.62528 11.0148 6.68882 11.601 6.93164C12.1872 7.17447 12.6883 7.58568 13.0408 8.11328C13.3934 8.64088 13.5815 9.26116 13.5815 9.8957C13.5815 10.7466 13.2435 11.5626 12.6418 12.1643C12.0402 12.766 11.2241 13.104 10.3732 13.104V13.104Z" fill="white"/>
<path d="M15.5095 5.91347C16.1473 5.91347 16.6645 5.39637 16.6645 4.75849C16.6645 4.12062 16.1473 3.60352 15.5095 3.60352C14.8716 3.60352 14.3545 4.12062 14.3545 4.75849C14.3545 5.39637 14.8716 5.91347 15.5095 5.91347Z" fill="white"/>
</svg>
