<svg width="20" height="19" viewBox="0 0 20 19" fill="none" xmlns="http://www.w3.org/2000/svg">
<path fill-rule="evenodd" clip-rule="evenodd" d="M9.96938 0.269531C4.86734 0.269531 0.762695 4.37418 0.762695 9.47622C0.762695 13.5425 3.40962 16.995 7.05393 18.2226C7.51426 18.2993 7.66771 18.0308 7.66771 17.7622C7.66771 17.5321 7.66771 16.9566 7.66771 16.1894C5.09751 16.7648 4.56045 14.9619 4.56045 14.9619C4.13848 13.8878 3.5247 13.6192 3.5247 13.6192C2.68075 13.0438 3.60142 13.0438 3.60142 13.0438C4.52209 13.1205 5.02079 14.0028 5.02079 14.0028C5.82637 15.4222 7.16901 15.0002 7.70607 14.7701C7.78279 14.1563 8.01296 13.7727 8.28149 13.5425C6.24834 13.3123 4.10012 12.5067 4.10012 8.97752C4.10012 7.98013 4.44537 7.13618 5.05915 6.5224C4.98243 6.29224 4.63717 5.37157 5.13587 4.06729C5.13587 4.06729 5.90309 3.83712 7.66771 5.02632C8.39657 4.83451 9.20216 4.71943 9.96938 4.71943C10.7366 4.71943 11.5422 4.83451 12.2711 5.02632C14.0357 3.83712 14.8029 4.06729 14.8029 4.06729C15.3016 5.33321 14.9947 6.25388 14.8796 6.5224C15.455 7.17454 15.8386 7.98013 15.8386 8.97752C15.8386 12.5067 13.6904 13.274 11.6189 13.5041C11.9642 13.7727 12.2327 14.3481 12.2327 15.192C12.2327 16.4196 12.2327 17.417 12.2327 17.7239C12.2327 17.954 12.3861 18.2609 12.8848 18.1842C16.5291 16.995 19.1761 13.5425 19.1761 9.47622C19.1761 4.37418 15.0714 0.269531 9.96938 0.269531Z" fill="white"/>
</svg>
