<svg width="17" height="13" viewBox="0 0 17 13" fill="none" xmlns="http://www.w3.org/2000/svg">
<path d="M16.71 1.60556C16.1146 1.87016 15.4862 2.03554 14.8247 2.13476C15.4862 1.73786 16.0154 1.10944 16.2469 0.348713C15.6185 0.712538 14.9239 0.977138 14.1632 1.14251C13.5679 0.514087 12.7079 0.117188 11.7818 0.117188C9.99576 0.117188 8.54046 1.57249 8.54046 3.35854C8.54046 3.62314 8.57353 3.85466 8.63968 4.08619C5.96061 3.95389 3.54613 2.66396 1.92546 0.679463C1.66086 1.17559 1.49548 1.70479 1.49548 2.30014C1.49548 3.42469 2.05776 4.41694 2.95078 5.01229C2.42158 4.97921 1.92546 4.84691 1.46241 4.61539V4.64846C1.46241 6.23606 2.58696 7.55906 4.07533 7.85674C3.81073 7.92289 3.51306 7.95596 3.21538 7.95596C3.01693 7.95596 2.78541 7.92289 2.58696 7.88981C3.01693 9.17974 4.20763 10.1389 5.62986 10.1389C4.50531 10.9989 3.11616 11.5281 1.59471 11.5281C1.33011 11.5281 1.06551 11.5281 0.833984 11.495C2.28928 12.4211 3.97611 12.9503 5.82831 12.9503C11.8149 12.9503 15.0893 7.98904 15.0893 3.68929C15.0893 3.55699 15.0893 3.39161 15.0893 3.25931C15.7177 2.82934 16.28 2.26706 16.71 1.60556Z" fill="white"/>
</svg>
